<svg xmlns="http://www.w3.org/2000/svg" xmlns:xlink="http://www.w3.org/1999/xlink" version="1.1" viewBox="0 0 563.7 366.1"><defs><path fill="url(#f)" d="M480.2 611.5c9.2 17.6 4 39.5-7.6 54.8-9.9 14-23.2 27.6-40.4 31.8-5.7 1.5-11-3-11.5-8.7-.6-1.6-1.4-7.6-1.8-3.3-2 10.9-17.5 14-24.4 5.9-2-2.9 2.2 7.6 1 4.5 2.5 4.8 3.2 13.2-3.5 14.7-6.7 1.2-13.5-1.7-20.2-1.7-25.6-3.9-51.8-17.2-64.2-40.6a40.3 40.3 0 0 1-2.8-25c-26.5 23-40 58-46.8 91.9-2.8 7.9 3.9.8 7.3-.9a51.6 51.6 0 0 1 44-7c9 3 15.3 12.5 12.5 21.8-1.8 5.2.2 4.4 3.5 1.2 12-9 29.2-15.3 43.2-7.2 8.7 5.3 12.2 16.1 10.9 25.8 6.3-7 17.9-9.8 26-4.1 14 6.8 24 19.4 31.1 33-2.2-19.8-.3-42.6 14-57.5a21.7 21.7 0 0 1 28-2.2c2.4 1.8 4.6 4 3.1-.4-1.9-14.4 8.7-29.8 23.7-30.2 9.2-.5 18.1 3.2 26.2 6.6-6.4-12-12.3-27.8-4.3-40.5 7.3-10.4 21.6-13.6 33.7-12.4 5.3.6 10.5 2 15.6 3.8-24.6-28.3-58.7-50.4-96.6-54.6l.3.5zM418 705c5.4.4 4.1 8 .2 9.8-2 1.6-5.5 1-6.8.1-2.6 6.4-13.7.5-9.8-5.2 2-3.3 7.6-2.7 9.4-.6 1.9-1.9 4.2-3.9 7-4.1z" clip-path="url(#e)" id="reuse-0"/></defs><defs><linearGradient id="c" x1="-167.6" x2="-185.3" y1="721.7" y2="606.4" gradientTransform="translate(-1.3 5)" gradientUnits="userSpaceOnUse"><stop offset="0" stop-color="#002b2b"/><stop offset="1" stop-color="#002b2b" stop-opacity="0"/></linearGradient><linearGradient xlink:href="#a" id="f" x1="400.8" x2="424.2" y1="608" y2="710.8" gradientUnits="userSpaceOnUse"/><linearGradient id="a"><stop offset="0" stop-color="#fff"/><stop offset="1" stop-color="#fff" stop-opacity="0"/></linearGradient><radialGradient id="d" cx="-181" cy="637.2" r="164.6" gradientTransform="matrix(.63137 -.0231 .0231 .6312 -79.4 253.2)" gradientUnits="userSpaceOnUse"><stop offset="0" stop-color="#007fd4"/><stop offset="1" stop-color="#007fd4" stop-opacity="0"/></radialGradient><clipPath id="e"><path fill="#fff" stroke="#fff" stroke-width="2" d="M439.2 587.5a165 76.6 0 1 1-329.8 0 165 76.6 0 1 1 329.8 0z" transform="translate(99.9 53.9)"/></clipPath><filter id="b" color-interpolation-filters="sRGB"><feGaussianBlur stdDeviation="2.7"/></filter></defs><path fill="#000" d="M-112.8 594.5c-4 0-3 4.8-1 6.7a45.5 45.5 0 0 1-2.4 41.8 94.4 94.4 0 0 1-31.5 34.5c-5.2 1.7-11.6 6.7-17 3.5-2.6-3.1-2-8-4.2-11.5-1.1-2-2.3-7.9-5.4-5.8-2.4 5 .4 12.8-6.3 15.2-5.1 2.7-11.8 1.4-14.5-3.9-1.4-2.9-6.2-2.9-5.6 1-.4 6 3.3 11.3 3.4 17-2.4 4.5-8.8 1.2-12.7 1.2-26-2-52.5-12.7-67.5-34.8-4.8-6.1-6-14.5-6.1-22 0-3.9 3.5-8.8 1-12.2-3.8 0-6.5 4.2-9.3 6.2-17 15.6-27.8 36.7-36 58.1a223 223 0 0 0-9.6 38.4c-.8 5 .7 7.2 4.9 3.1 8.6-5.2 16.6-12.1 27.1-13.2 9.5-2.3 20-2 28.1 3.9 4.4 3.3 5.9 9 4.6 14.2.2 3.3-2.9 8.9.8 10.9 4.7-1.2 7.8-6.4 12.3-8.3 10-6.2 23.8-11.4 34.6-4.4 6.4 2.7 9.3 9.7 9.8 16.4.2 4.9-.3 9.7 0 14.6 6-6 13.8-14.5 23-11.3 22 8 34.2 29.9 42.3 50.6 2 4.1 2-6.5.6-8.7-3.8-19.3-4-40.6 5.8-58 4.6-6.8 11.5-14 20.5-11.9 6.8.8 12 5.4 16.2 10.2 2.5 2.1 4-1.7 2.8-3.7a26.1 26.1 0 0 1 5.2-27.6c8.9-8.6 22.4-5.8 32.6-1.6 4.8 1 8.6 5.5 13.7 5-5-10.8-12-21.6-11.6-34 .4-8 5.2-16 13.4-18.2 8.8-4.7 19.8-3.8 29.2-1.5 5.2 1.3 10.3 5 15.9 3.6a157.2 157.2 0 0 0-23.1-24.5 152 152 0 0 0-71.4-37.1c-4.1-.2-8.4-2.1-12.6-2zm-60.3 101.4c.6 1.7-3 4.8-4 3.2a6.4 6.4 0 0 1 4-3.2zm-11.4 2.4c2.5 0 2.4 4.6-.6 2.6-2.7-.5-1.7-2.6.6-2.6z" filter="url(#b)" transform="translate(-88.8 -61.9) translate(650.6 -881.7) scale(1.6087) matrix(1 0 0 .98762 0 7.4)"/><path fill="url(#c)" d="M-149.3 798.8c-2-4.5-4.5-10.6-7.2-15-3-6.3-7.3-13-12-17.9a54.8 54.8 0 0 0-24.7-17c-8.5-1.3-15.3 5.1-20.7 10.7-.5-7.5 1.6-16.5-3.4-23-.8-4.2-6-5.7-8.4-7.8a25.6 25.6 0 0 0-17.8-1.5 51.7 51.7 0 0 0-15.4 6.5c-4.4 2.4-7.5 5.4-11.6 8.5-5.3 1.9 2.8-16-2.6-20.6-1.9-5.3-8.5-6.5-13-8.9a57 57 0 0 0-26.4 2.5c-4.7 1-9 4.5-13 6.9-3.7 2.6-7 4.4-10.5 6.8-.9-8.2 2.5-15.9 3.8-23.9 1.3-5.7 3.6-11.2 4.8-17 2.3-4.6 3.9-9.6 5.9-14.3l9-18 8-12.1c2.9-3.3 5.2-6.8 8.5-10 4-3.9 7.6-7.9 12.1-10.8 4.2-3-1 10.2-.3 13.6 1.1 5.8 1.4 12.3 4.7 17.4a76.3 76.3 0 0 0 31 27.5 99 99 0 0 0 15.2 6c8.2 1.8 16.6 4.1 25.4 4.3 7.6 2.2 15.3 1.5 10.7-8.2-3-9.8-3.7-18.8 3.8-9 4 5.9 18.1 3.2 18.8-4.8 1-6.3.3-18.6 7.7 3.4-.1 4 2.8 8.3 10.9 5.5 4.9-2 7-2.3 11.5-5.2 3.6-2.7 7.2-5.8 10.2-8.4 5.7-5.7 11.6-12.2 16.2-19.2 3.7-7 8.1-14.4 8.9-22.7 2.4-8.6 0-18-3.2-25.7-6.8-9.8 7.6-3.6 12.5-3.6a80.4 80.4 0 0 1 19.7 5.6 84 84 0 0 1 14.8 6.4c5.4 2.2 10.7 6.1 16 9l10.9 8c4.5 3.4 8.7 6.7 12.5 10.8 3.5 1.8 6 5.5 9 8.3l10.1 12c-3.4.8-12.8-4-18.3-5-8.7-.7-17.7-1.8-25.6 2.8a18.4 18.4 0 0 0-13 15c-2.8 8.4 1.4 16.2 3.5 23.8 2.7 4.2 4.6 9 6.8 13.2-2.9.3-8.7-4.5-13-5-6.5-2.8-14.3-5-21.8-3.6-5.5 1-10 4-13.5 8.6-3.3 6-6.3 14.4-3.7 21.5 2.5 8.2 1.4 9.4-3.8 3a24 24 0 0 0-14.2-6.9 16.5 16.5 0 0 0-15 6c-7.8 6.7-10.4 17.2-12.4 26.6-3.1 14.9-.4 30.3 2.2 44.9l-.3 1zM-181 697.2c-1-7.6-11.8.1-2 1.4 1 .5 1.7-1 2-1.4zm7.5-.8c5.4-7-1.1-5.5-3.7-1.5-1.6 3 2.5 2 3.7 1.5z" transform="translate(-88.8 -61.9) translate(650.6 -881.7) scale(1.6087)"/><path fill="url(#d)" d="M-146.7 796.2c-2.1-4.4-4.5-10.6-7.2-15-3-6.3-7.4-13-12-17.8a54.8 54.8 0 0 0-24.7-17c-8.6-1.4-15.4 5-20.8 10.6-.4-7.4 1.6-16.5-3.3-23-.9-4.1-6-5.6-8.4-7.8a25.6 25.6 0 0 0-17.9-1.4 51.7 51.7 0 0 0-15.4 6.4c-4.3 2.4-7.5 5.5-11.6 8.6-5.2 1.9 2.9-16.1-2.5-20.6-2-5.4-8.6-6.5-13-9a57 57 0 0 0-26.5 2.6c-4.7 1-8.9 4.4-12.9 6.8-3.8 2.7-7 4.4-10.6 6.8-.8-8.2 2.5-15.8 3.8-23.8 1.3-5.7 3.7-11.2 4.8-17 2.4-4.7 4-9.7 6-14.3l9-18 8-12.2c2.8-3.3 5.2-6.8 8.4-9.9 4-4 7.6-8 12.2-10.8 4.1-3-1 10.2-.4 13.6 1.2 5.7 1.5 12.3 4.7 17.3 2.5 3.6 4.6 6.8 7.7 10a76.3 76.3 0 0 0 23.2 17.5 99 99 0 0 0 15.3 6c8.3 1.9 16.6 4.2 25.4 4.4 7.6 2.1 15.3 1.4 10.7-8.2-3-9.8-3.6-18.8 3.9-9 4 5.9 18 3.1 18.8-4.9.9-6.2.3-18.6 7.6 3.4 0 4.1 2.8 8.4 11 5.5 4.8-2 6.9-2.3 11.5-5.1 3.5-2.7 7-5.8 10.2-8.5 5.6-5.6 11.6-12.2 16.2-19.2 3.6-6.9 8-14.4 8.8-22.6 2.4-8.6 0-18-3.2-25.8-6.8-9.8 7.6-3.5 12.5-3.5a80.4 80.4 0 0 1 19.7 5.6 84 84 0 0 1 14.8 6.4c5.4 2.1 10.7 6 16 9 3.6 2.4 7.1 5.1 10.9 8 4.5 3.3 8.7 6.7 12.5 10.8 3.5 1.8 6 5.5 9 8.2 3.4 4.2 6.9 8 10.1 12-3.4.9-12.7-4-18.3-5-8.7-.6-17.7-1.7-25.6 2.8a18.4 18.4 0 0 0-13 15.1c-2.8 8.4 1.4 16.1 3.5 23.7 2.7 4.3 4.7 9 6.8 13.3-2.8.2-8.6-4.5-13-5.1-6.5-2.8-14.2-5-21.8-3.5-5.5 1-10 4-13.5 8.6-3.3 6-6.2 14.3-3.7 21.4 2.5 8.3 1.4 9.5-3.8 3a24 24 0 0 0-14.1-6.8 16.5 16.5 0 0 0-15 6c-8 6.6-10.4 17.2-12.4 26.5-3.2 15-.5 30.3 2.2 45l-.3 1zm-31.9-101.5c-1-7.6-11.8.1-2 1.4 1 .4 1.7-1 2-1.4zm7.6-.9c5.3-6.9-1.2-5.4-3.8-1.5-1.5 3 2.5 2 3.8 1.5z" transform="translate(-88.8 -61.9) translate(650.6 -881.7) scale(1.6087)"/><path fill="#2a55ff" d="M-107.5 597.6c7.8 22.7-2.4 47.4-18.2 64-11.7 14.1-40.6 26-40.5 15.7-2.9.3-.2-16.2-4.2-11.4-2.5 13.4-15 16-24.3 7.7 2.7 3.6 8.9 10.4 1 19.6a103 103 0 0 1-66-13.9 62.8 62.8 0 0 1-29.6-48.7 175.9 175.9 0 0 0-42.3 90c16.4-12 40.9-18.6 58.4-5.3 5.6 4.3 5.8 12 7.5 18.3 13-12.6 37.3-16.2 50.3-1.7 3.1 5.1 4.6 14.3 12.3 14 16.4-4.3 31.2 8.4 40.4 20.6 4.8 2.7 8.3-3.8 7.4-8 .4-15 7.2-31.6 21-39 7.3-5 16 .2 24-2.3-1.2-21.1 27.3-35.3 43.6-21.7 4.5 1.5 4.6-5.3 1.8-7.1-9.7-15.7-.5-40.6 18.7-43 8.5-2.1 17.3-1.5 26-1.7-23.5-24.1-54-43-87.7-48l.2 1z" opacity=".4" transform="translate(-88.8 -61.9) translate(650.6 -881.7) scale(1.6087)"/><use clip-path="url(#e)" transform="translate(-88.8 -61.9) translate(650.6 -881.7) scale(1.6087) translate(-590 -15.7)" xlink:href="#reuse-0"/><use clip-path="url(#e)" transform="translate(-88.8 -61.9) translate(650.6 -881.7) scale(1.6087) translate(-590 -15.7)" xlink:href="#reuse-0"/></svg>