<svg xmlns="http://www.w3.org/2000/svg" xmlns:xlink="http://www.w3.org/1999/xlink" width="563.679" height="366.117"><defs><linearGradient x1="-167.57" y1="721.725" x2="-185.317" y2="606.369" id="f" xlink:href="#a" gradientUnits="userSpaceOnUse" gradientTransform="translate(-1.268 5.07)"/><linearGradient id="a"><stop offset="0" stop-color="#2b0000"/><stop offset="1" stop-color="#2b0000" stop-opacity="0"/></linearGradient><linearGradient id="c"><stop offset="0" stop-color="#d45500"/><stop offset="1" stop-color="#d45500" stop-opacity="0"/></linearGradient><linearGradient x1="400.834" y1="607.959" x2="424.166" y2="710.812" id="i" xlink:href="#b" gradientUnits="userSpaceOnUse"/><linearGradient id="b"><stop offset="0" stop-color="#fff"/><stop offset="1" stop-color="#fff" stop-opacity="0"/></linearGradient><linearGradient x1="400.834" y1="607.959" x2="424.166" y2="710.812" id="j" xlink:href="#b" gradientUnits="userSpaceOnUse"/><filter color-interpolation-filters="sRGB" id="e"><feGaussianBlur stdDeviation="2.714"/></filter><filter id="d" color-interpolation-filters="sRGB"><feColorMatrix type="hueRotate" values="180" result="color1"/><feColorMatrix values="1 0 0 0 0 0 1 0 0 0 0 0 1 0 0 -0.21 -0.72 -0.07 2 0" result="color2"/></filter><radialGradient cx="-180.992" cy="637.231" r="164.637" fx="-180.992" fy="637.231" id="g" xlink:href="#c" gradientUnits="userSpaceOnUse" gradientTransform="matrix(.63137 -.0231 .0231 .6312 -79.422 253.207)"/><clipPath id="h"><path d="M539.117 641.382a164.93 76.639 0 11-329.86 0 164.93 76.639 0 11329.86 0z" fill="#fff" stroke="#fff" stroke-width="2"/></clipPath></defs><g transform="translate(-88.763 -61.9)" filter="url(#d)"><path d="M-112.8 594.449c-3.917-.026-2.937 4.889-.938 6.75 6.503 13.314 4.578 29.147-2.502 41.798-7.123 13.909-18.498 25.714-31.467 34.452-5.178 1.749-11.574 6.755-17.031 3.5-2.609-3.097-1.99-7.909-4.188-11.47-1.11-1.886-2.273-7.862-5.375-5.812-2.374 5.02.393 12.839-6.343 15.282-5.07 2.606-11.741 1.335-14.438-3.907-1.433-2.908-6.246-2.898-5.625 1.032-.407 5.895 3.343 11.246 3.406 16.843-2.406 4.538-8.752 1.297-12.718 1.313-25.887-1.962-52.51-12.738-67.438-34.813-4.812-6.12-5.979-14.56-6.187-22.093.007-3.83 3.499-8.691.968-12.094-3.734-.093-6.393 4.148-9.24 6.151-17.016 15.58-27.762 36.747-35.947 58.13-4.192 12.418-7.683 25.278-9.625 38.344-.811 5.064.668 7.201 4.853 3.149 8.647-5.234 16.618-12.139 27.18-13.182 9.484-2.354 19.885-1.964 28.06 3.877 4.394 3.32 5.854 8.997 4.594 14.25.161 3.294-2.9 8.842.813 10.843 4.731-1.174 7.758-6.398 12.25-8.312 10.008-6.18 23.803-11.405 34.687-4.344 6.395 2.691 9.274 9.696 9.75 16.344.232 4.874-.317 9.754.094 14.625 5.915-5.952 13.726-14.476 23-11.281 21.901 8.017 34.118 29.87 42.193 50.578 1.94 4.116 1.972-6.53.625-8.712-3.786-19.262-3.92-40.547 5.745-58.054 4.603-6.746 11.585-13.899 20.562-11.812 6.765.779 11.956 5.409 16.219 10.218 2.505 2.103 3.896-1.709 2.781-3.718-3.771-9.17-1.744-20.498 5.219-27.594 8.82-8.66 22.41-5.825 32.531-1.594 4.787 1.012 8.629 5.47 13.781 4.969-5.092-10.83-12.129-21.57-11.656-33.938.44-8.01 5.205-16.099 13.406-18.25 8.794-4.69 19.812-3.86 29.163-1.56 5.198 1.365 10.384 5.01 15.931 3.623-7.1-8.793-14.425-17.521-23.094-24.469-20.339-17.89-44.607-32.177-71.437-37.125-4.063-.142-8.322-2.115-12.563-1.937zm-60.25 101.468c.577 1.686-3.024 4.74-4.094 3.188.765-1.538 2.466-2.837 4.093-3.188zm-11.438 2.375c2.49-.03 2.392 4.583-.563 2.625-2.764-.515-1.732-2.587.563-2.625z" transform="matrix(1.60871 0 0 1.5888 650.572 -869.851)" filter="url(#e)"/><path d="M-149.26 798.776c-2.114-4.432-4.52-10.599-7.203-15.016-3.015-6.276-7.385-12.985-12.004-17.834-6.245-7.894-15.282-13.783-24.712-17.07-8.56-1.293-15.316 5.158-20.751 10.728-.449-7.477 1.632-16.517-3.344-23.075-.81-4.097-6.008-5.607-8.397-7.734-5.569-2.472-11.774-3.277-17.818-1.476-5.468 1.463-10.542 3.25-15.455 6.457-4.306 2.402-7.474 5.432-11.553 8.559-5.258 1.873 2.844-16.08-2.565-20.572-1.92-5.394-8.525-6.513-13.027-8.924-9.018-1.782-17.923.099-26.42 2.467-4.702 1.01-8.896 4.486-12.905 6.874-3.813 2.635-7.032 4.395-10.625 6.79-.832-8.181 2.518-15.823 3.833-23.837 1.272-5.69 3.627-11.216 4.789-16.976 2.365-4.66 3.898-9.678 5.905-14.296 3.042-6.094 5.994-12.016 9.002-18.02 2.402-3.617 5.475-8.307 8.103-12.163 2.787-3.277 5.153-6.796 8.402-9.91 3.917-3.928 7.608-7.921 12.154-10.812 4.17-2.954-.994 10.201-.343 13.564 1.136 5.772 1.438 12.311 4.694 17.37 2.448 3.556 4.616 6.755 7.652 9.91 6.5 7.368 14.43 13.165 23.257 17.593 4.908 2.565 10.09 4.274 15.305 5.983 8.222 1.846 16.56 4.16 25.358 4.354 7.646 2.153 15.323 1.463 10.746-8.2-3.111-9.811-3.694-18.765 3.808-9.068 3.997 5.946 18.074 3.22 18.808-4.757.908-6.294.295-18.602 7.676 3.395-.106 4.052 2.787 8.341 10.88 5.499 4.879-2.03 6.944-2.31 11.55-5.189 3.567-2.684 7.121-5.775 10.2-8.413 5.658-5.658 11.603-12.212 16.209-19.217 3.648-6.888 8.06-14.398 8.812-22.636 2.414-8.58.037-17.956-3.199-25.76-6.775-9.804 7.591-3.545 12.542-3.56 6.795 1.215 13.375 2.707 19.656 5.583a83.984 83.984 0 0114.854 6.43c5.367 2.138 10.685 6.089 15.905 9.01 3.603 2.434 7.164 5.138 10.953 7.959 4.496 3.375 8.707 6.748 12.53 10.849 3.497 1.757 5.972 5.458 8.903 8.221 3.477 4.135 6.927 8.027 10.199 12.013-3.444.862-12.78-4.04-18.335-5.022-8.704-.638-17.7-1.75-25.556 2.814-6.627 1.901-12.367 8.1-13.058 15.122-2.758 8.324 1.451 16.082 3.507 23.687 2.701 4.23 4.678 9.026 6.806 13.253-2.834.225-8.643-4.531-12.98-5.101-6.502-2.767-14.264-4.916-21.83-3.493-5.492.997-9.976 4.01-13.505 8.594-3.297 6.018-6.231 14.357-3.691 21.46 2.528 8.224 1.453 9.423-3.81 3.017-3.835-4.072-8.775-6.022-14.105-6.908-5.248-.839-11.546 1.47-15.005 6.007-7.883 6.685-10.42 17.193-12.41 26.579-3.164 14.9-.433 30.284 2.207 44.898l-.3 1.051zm-31.857-101.552c-1.05-7.605-11.765.113-2.065 1.394 1.023.433 1.784-.976 2.065-1.394zm7.549-.868c5.37-6.927-1.171-5.416-3.751-1.492-1.556 3.015 2.534 1.95 3.75 1.492z" fill="url(#f)" transform="translate(650.572 -881.69) scale(1.60871)"/><path d="M-146.726 796.24c-2.112-4.431-4.518-10.598-7.202-15.015-3.015-6.276-7.385-12.986-12.003-17.835-6.246-7.893-15.283-13.782-24.712-17.07-8.56-1.292-15.317 5.159-20.752 10.728-.449-7.476 1.632-16.516-3.344-23.075-.809-4.096-6.008-5.607-8.397-7.733-5.568-2.472-11.773-3.277-17.818-1.477-5.467 1.464-10.542 3.251-15.454 6.457-4.306 2.402-7.475 5.432-11.554 8.56-5.258 1.873 2.845-16.08-2.564-20.573-1.921-5.393-8.525-6.512-13.027-8.923-9.019-1.782-17.924.099-26.421 2.466-4.702 1.01-8.896 4.486-12.904 6.875-3.814 2.635-7.032 4.394-10.625 6.79-.833-8.181 2.518-15.823 3.832-23.837 1.273-5.69 3.627-11.216 4.79-16.976 2.364-4.66 3.897-9.678 5.904-14.296 3.042-6.094 5.994-12.016 9.003-18.02 2.401-3.617 5.474-8.307 8.102-12.163 2.787-3.278 5.154-6.796 8.402-9.91 3.917-3.928 7.608-7.921 12.154-10.813 4.17-2.953-.994 10.202-.343 13.565 1.136 5.772 1.438 12.31 4.694 17.369 2.448 3.556 4.616 6.756 7.653 9.91 6.5 7.369 14.43 13.166 23.257 17.594 4.907 2.565 10.09 4.274 15.304 5.982 8.223 1.847 16.56 4.16 25.358 4.355 7.646 2.153 15.323 1.463 10.746-8.201-3.111-9.81-3.693-18.764 3.808-9.068 3.997 5.947 18.074 3.222 18.808-4.756.908-6.294.295-18.602 7.676 3.395-.106 4.052 2.787 8.34 10.88 5.499 4.879-2.03 6.945-2.31 11.55-5.189 3.567-2.685 7.121-5.775 10.2-8.413 5.658-5.658 11.603-12.212 16.209-19.217 3.648-6.888 8.06-14.398 8.812-22.636 2.414-8.58.037-17.957-3.198-25.76-6.776-9.804 7.59-3.545 12.541-3.56 6.795 1.215 13.375 2.707 19.656 5.582a83.984 83.984 0 0114.855 6.431c5.366 2.138 10.684 6.089 15.904 9.01 3.603 2.433 7.165 5.138 10.954 7.958 4.495 3.376 8.706 6.749 12.528 10.85 3.498 1.757 5.973 5.457 8.904 8.221 3.478 4.135 6.927 8.027 10.199 12.013-3.444.862-12.78-4.04-18.334-5.023-8.705-.638-17.7-1.749-25.557 2.814-6.627 1.902-12.366 8.1-13.057 15.123-2.759 8.324 1.45 16.082 3.506 23.687 2.702 4.23 4.679 9.026 6.806 13.253-2.834.225-8.643-4.532-12.979-5.101-6.503-2.768-14.265-4.916-21.831-3.493-5.492.997-9.976 4.01-13.504 8.594-3.297 6.018-6.232 14.356-3.692 21.46 2.529 8.223 1.453 9.422-3.81 3.016-3.835-4.072-8.775-6.021-14.105-6.907-5.248-.839-11.546 1.47-15.004 6.006-7.884 6.685-10.42 17.194-12.41 26.58-3.164 14.9-.434 30.284 2.207 44.898l-.3 1.051zm-31.856-101.551c-1.05-7.605-11.765.112-2.064 1.393 1.023.433 1.783-.976 2.064-1.393zm7.55-.868c5.37-6.927-1.172-5.416-3.752-1.493-1.556 3.016 2.534 1.951 3.751 1.493z" fill="url(#g)" transform="translate(650.572 -881.69) scale(1.60871)"/><path d="M477.68 79.744c12.43 36.396-3.852 76.18-29.256 102.922-18.885 22.663-65.447 41.925-65.276 25.234-4.555.396-.262-26.114-6.677-18.313-4.08 21.54-24.042 25.668-39.091 12.34 4.264 5.84 14.27 16.709 1.585 31.568-36.825 5.756-73.902-4.309-106.042-22.377-26.485-16.921-46.3-46.025-47.777-78.387-36.54 40.07-59.268 91.49-68.019 144.834 26.357-19.385 65.787-29.961 93.96-8.546 8.91 6.993 9.377 19.325 12.065 29.46 20.84-20.327 60.053-26.12 80.938-2.816 4.986 8.35 7.326 23.149 19.807 22.522 26.285-6.786 50.066 13.65 64.901 33.23 7.797 4.352 13.465-6.115 11.965-12.97.684-24.146 11.567-50.822 33.783-62.79 11.656-7.833 25.797.499 38.509-3.57-1.863-33.95 44.07-56.802 70.18-34.889 7.248 2.428 7.5-8.485 2.916-11.462-15.548-25.162-.862-65.243 30.062-69.174 13.749-3.436 27.886-2.374 41.927-2.765-37.945-38.76-86.905-69.081-141.114-77.017l.346 1.57z" opacity=".412" fill="#ffd42a"/><path d="M480.156 611.469c9.266 17.632 3.972 39.504-7.531 54.812-9.932 14.068-23.263 27.634-40.438 31.844-5.703 1.441-11.001-3.108-11.53-8.75-.564-1.562-1.352-7.56-1.782-3.281-1.912 10.9-17.454 13.92-24.375 5.875-1.951-2.825 2.24 7.618.99 4.562 2.469 4.784 3.235 13.209-3.459 14.657-6.77 1.194-13.485-1.64-20.281-1.72-25.6-3.822-51.722-17.174-64.156-40.593-3.438-7.698-4.733-17.26-2.781-24.969-26.506 23.005-39.957 57.909-46.844 91.875-2.723 7.872 3.91.771 7.281-.843 12.713-8.269 29.429-12.216 44.094-7.063 8.874 2.964 15.277 12.513 12.406 21.813-1.707 5.243.224 4.448 3.594 1.187 11.958-8.983 29.182-15.27 43.187-7.125 8.646 5.256 12.118 16.049 10.844 25.75 6.365-7.028 17.878-9.844 26-4.125 13.928 6.823 24.006 19.466 31.156 33-2.252-19.73-.373-42.597 14-57.469 7.259-7.63 19.624-8.168 27.969-2.156 2.408 1.72 4.56 4.031 3.125-.438-1.929-14.388 8.624-29.807 23.706-30.166 9.177-.595 18.08 3.198 26.138 6.604-6.408-12.107-12.311-27.854-4.25-40.531 7.24-10.413 21.555-13.589 33.656-12.375 5.344.594 10.563 1.911 15.594 3.718-24.62-28.292-58.644-50.409-96.563-54.562l.25.469zM417.97 705c5.467.434 4.149 8.058.25 9.844-1.98 1.564-5.56 1.043-6.813.093-2.603 6.345-13.7.493-9.812-5.28 2.08-3.245 7.636-2.623 9.437-.532 1.83-1.9 4.133-3.887 6.938-4.125z" transform="translate(-298.531 -907.006) scale(1.60871)" clip-path="url(#h)" fill="url(#i)"/><path d="M480.156 611.469c9.266 17.632 3.972 39.504-7.531 54.812-9.932 14.068-23.263 27.634-40.438 31.844-5.703 1.441-11.001-3.108-11.53-8.75-.564-1.562-1.352-7.56-1.782-3.281-1.912 10.9-17.454 13.92-24.375 5.875-1.951-2.825 2.24 7.618.99 4.562 2.469 4.784 3.235 13.209-3.459 14.657-6.77 1.194-13.485-1.64-20.281-1.72-25.6-3.822-51.722-17.174-64.156-40.593-3.438-7.698-4.733-17.26-2.781-24.969-26.506 23.005-39.957 57.909-46.844 91.875-2.723 7.872 3.91.771 7.281-.843 12.713-8.269 29.429-12.216 44.094-7.063 8.874 2.964 15.277 12.513 12.406 21.813-1.707 5.243.224 4.448 3.594 1.187 11.958-8.983 29.182-15.27 43.187-7.125 8.646 5.256 12.118 16.049 10.844 25.75 6.365-7.028 17.878-9.844 26-4.125 13.928 6.823 24.006 19.466 31.156 33-2.252-19.73-.373-42.597 14-57.469 7.259-7.63 19.624-8.168 27.969-2.156 2.408 1.72 4.56 4.031 3.125-.438-1.929-14.388 8.624-29.807 23.706-30.166 9.177-.595 18.08 3.198 26.138 6.604-6.408-12.107-12.311-27.854-4.25-40.531 7.24-10.413 21.555-13.589 33.656-12.375 5.344.594 10.563 1.911 15.594 3.718-24.62-28.292-58.644-50.409-96.563-54.562l.25.469zM417.97 705c5.467.434 4.149 8.058.25 9.844-1.98 1.564-5.56 1.043-6.813.093-2.603 6.345-13.7.493-9.812-5.28 2.08-3.245 7.636-2.623 9.437-.532 1.83-1.9 4.133-3.887 6.938-4.125z" transform="translate(-298.531 -907.006) scale(1.60871)" clip-path="url(#h)" fill="url(#j)"/></g></svg>